<mxfile host="app.diagrams.net" agent="Mozilla/5.0 (Windows NT 10.0; Win64; x64) AppleWebKit/537.36 (KHTML, like Gecko) Chrome/134.0.0.0 Safari/537.36 Edg/134.0.0.0" version="26.1.1">
  <diagram id="VpaAwH4FjSLU54LBAnV3" name="Page-1">
    <mxGraphModel dx="897" dy="706" grid="1" gridSize="10" guides="1" tooltips="1" connect="1" arrows="1" fold="1" page="0" pageScale="1" pageWidth="827" pageHeight="1169" background="none" math="0" shadow="0">
      <root>
        <mxCell id="0" />
        <mxCell id="1" parent="0" />
        <mxCell id="node19" value="&lt;p style=&quot;margin:0px;margin-top:4px;text-align:center;&quot;&gt;&lt;b&gt;AuditLog&lt;/b&gt;&lt;/p&gt;&lt;hr size=&quot;1&quot;/&gt;&lt;p style=&quot;margin:0 0 0 4px;line-height:1.6;&quot;&gt; UserID: int&lt;br/&gt; EventType: nvarchar(50)&lt;br/&gt; TableName: nvarchar(100)&lt;br/&gt; RecordID: nvarchar(50)&lt;br/&gt; OldValues: nvarchar(max)&lt;br/&gt; NewValues: nvarchar(max)&lt;br/&gt; IPAddress: nvarchar(50)&lt;br/&gt; SeverityLevel: int&lt;br/&gt; Timestamp: datetime&lt;/p&gt;&lt;hr size=&quot;1&quot;/&gt;&lt;p style=&quot;margin:0 0 0 4px;line-height:1.6;&quot;&gt; AuditID: int&lt;/p&gt;" style="verticalAlign=top;align=left;overflow=fill;fontSize=14;fontFamily=Helvetica;html=1;rounded=0;shadow=0;comic=0;labelBackgroundColor=none;strokeWidth=1;" parent="1" vertex="1">
          <mxGeometry x="73" y="311" width="205" height="314" as="geometry" />
        </mxCell>
        <mxCell id="node15" value="&lt;p style=&quot;margin:0px;margin-top:4px;text-align:center;&quot;&gt;&lt;b&gt;Brand&lt;/b&gt;&lt;/p&gt;&lt;hr size=&quot;1&quot;/&gt;&lt;p style=&quot;margin:0 0 0 4px;line-height:1.6;&quot;&gt; BrandName: nvarchar(100)&lt;br/&gt; Description: nvarchar(max)&lt;br/&gt; IsActive: bit&lt;br/&gt; CreatedDate: datetime&lt;br/&gt; CreatedBy: int&lt;br/&gt; ModifiedDate: datetime&lt;br/&gt; ModifiedBy: int&lt;/p&gt;&lt;hr size=&quot;1&quot;/&gt;&lt;p style=&quot;margin:0 0 0 4px;line-height:1.6;&quot;&gt; BrandID: int&lt;/p&gt;" style="verticalAlign=top;align=left;overflow=fill;fontSize=14;fontFamily=Helvetica;html=1;rounded=0;shadow=0;comic=0;labelBackgroundColor=none;strokeWidth=1;" parent="1" vertex="1">
          <mxGeometry x="561" y="1231" width="207" height="258" as="geometry" />
        </mxCell>
        <mxCell id="node3" value="&lt;p style=&quot;margin:0px;margin-top:4px;text-align:center;&quot;&gt;&lt;b&gt;Category&lt;/b&gt;&lt;/p&gt;&lt;hr size=&quot;1&quot;/&gt;&lt;p style=&quot;margin:0 0 0 4px;line-height:1.6;&quot;&gt; CategoryName: nvarchar(100)&lt;br/&gt; Description: nvarchar(max)&lt;br/&gt; IsActive: bit&lt;br/&gt; CreatedDate: datetime&lt;br/&gt; CreatedBy: int&lt;br/&gt; ModifiedDate: datetime&lt;br/&gt; ModifiedBy: int&lt;/p&gt;&lt;hr size=&quot;1&quot;/&gt;&lt;p style=&quot;margin:0 0 0 4px;line-height:1.6;&quot;&gt; CategoryID: int&lt;/p&gt;" style="verticalAlign=top;align=left;overflow=fill;fontSize=14;fontFamily=Helvetica;html=1;rounded=0;shadow=0;comic=0;labelBackgroundColor=none;strokeWidth=1;" parent="1" vertex="1">
          <mxGeometry x="750" y="817" width="229" height="258" as="geometry" />
        </mxCell>
        <mxCell id="node14" value="&lt;p style=&quot;margin:0px;margin-top:4px;text-align:center;&quot;&gt;&lt;b&gt;Customer&lt;/b&gt;&lt;/p&gt;&lt;hr size=&quot;1&quot;/&gt;&lt;p style=&quot;margin:0 0 0 4px;line-height:1.6;&quot;&gt; CustomerName: nvarchar(100)&lt;br/&gt; ContactName: nvarchar(100)&lt;br/&gt; ContactTitle: nvarchar(100)&lt;br/&gt; Phone: nvarchar(20)&lt;br/&gt; Email: nvarchar(100)&lt;br/&gt; Address: nvarchar(255)&lt;br/&gt; City: nvarchar(50)&lt;br/&gt; State: nvarchar(50)&lt;br/&gt; PostalCode: nvarchar(20)&lt;br/&gt; Country: nvarchar(50)&lt;br/&gt; LoyaltyPoints: int&lt;br/&gt; IsActive: bit&lt;br/&gt; CustomerTypeID: int&lt;br/&gt; CustomerTypeName: nvarchar(50)&lt;br/&gt; CreditLimit: decimal(18,2)&lt;br/&gt; Balance: decimal(18,2)&lt;br/&gt; PaymentTerms: nvarchar(50)&lt;br/&gt; TaxID: nvarchar(50)&lt;br/&gt; Notes: ntext&lt;br/&gt; CreatedDate: datetime&lt;br/&gt; ModifiedDate: datetime&lt;/p&gt;&lt;hr size=&quot;1&quot;/&gt;&lt;p style=&quot;margin:0 0 0 4px;line-height:1.6;&quot;&gt; CustomerID: int&lt;/p&gt;" style="verticalAlign=top;align=left;overflow=fill;fontSize=14;fontFamily=Helvetica;html=1;rounded=0;shadow=0;comic=0;labelBackgroundColor=none;strokeWidth=1;" parent="1" vertex="1">
          <mxGeometry x="1835" y="-153" width="258" height="650" as="geometry" />
        </mxCell>
        <mxCell id="node2" value="&lt;p style=&quot;margin:0px;margin-top:4px;text-align:center;&quot;&gt;&lt;b&gt;CustomerType&lt;/b&gt;&lt;/p&gt;&lt;hr size=&quot;1&quot;/&gt;&lt;p style=&quot;margin:0 0 0 4px;line-height:1.6;&quot;&gt; CustomerTypeName: nvarchar(50)&lt;br/&gt; DiscountPercentage: decimal(5,2)&lt;br/&gt; IsActive: bit&lt;br/&gt; CreatedDate: datetime&lt;br/&gt; ModifiedDate: datetime&lt;/p&gt;&lt;hr size=&quot;1&quot;/&gt;&lt;p style=&quot;margin:0 0 0 4px;line-height:1.6;&quot;&gt; CustomerTypeID: int&lt;/p&gt;" style="verticalAlign=top;align=left;overflow=fill;fontSize=14;fontFamily=Helvetica;html=1;rounded=0;shadow=0;comic=0;labelBackgroundColor=none;strokeWidth=1;" parent="1" vertex="1">
          <mxGeometry x="1447" y="41" width="258" height="202" as="geometry" />
        </mxCell>
        <mxCell id="node5" value="&lt;p style=&quot;margin:0px;margin-top:4px;text-align:center;&quot;&gt;&lt;b&gt;ErrorLog&lt;/b&gt;&lt;/p&gt;&lt;hr size=&quot;1&quot;/&gt;&lt;p style=&quot;margin:0 0 0 4px;line-height:1.6;&quot;&gt; ErrorModule: nvarchar(50)&lt;br/&gt; ErrorMessage: nvarchar(max)&lt;br/&gt; StackTrace: nvarchar(max)&lt;br/&gt; SeverityLevel: int&lt;br/&gt; UserID: int&lt;br/&gt; IPAddress: nvarchar(50)&lt;br/&gt; Timestamp: datetime&lt;/p&gt;&lt;hr size=&quot;1&quot;/&gt;&lt;p style=&quot;margin:0 0 0 4px;line-height:1.6;&quot;&gt; ErrorID: int&lt;/p&gt;" style="verticalAlign=top;align=left;overflow=fill;fontSize=14;fontFamily=Helvetica;html=1;rounded=0;shadow=0;comic=0;labelBackgroundColor=none;strokeWidth=1;" parent="1" vertex="1">
          <mxGeometry x="113" y="1064" width="222" height="258" as="geometry" />
        </mxCell>
        <mxCell id="node12" value="&lt;p style=&quot;margin:0px;margin-top:4px;text-align:center;&quot;&gt;&lt;b&gt;ExpenseCategories&lt;/b&gt;&lt;/p&gt;&lt;hr size=&quot;1&quot;/&gt;&lt;p style=&quot;margin:0 0 0 4px;line-height:1.6;&quot;&gt; CategoryName: nvarchar(100)&lt;br/&gt; Description: nvarchar(255)&lt;br/&gt; IsActive: bit&lt;br/&gt; CreatedDate: datetime&lt;br/&gt; LastModifiedDate: datetime&lt;/p&gt;&lt;hr size=&quot;1&quot;/&gt;&lt;p style=&quot;margin:0 0 0 4px;line-height:1.6;&quot;&gt; CategoryID: int&lt;/p&gt;" style="verticalAlign=top;align=left;overflow=fill;fontSize=14;fontFamily=Helvetica;html=1;rounded=0;shadow=0;comic=0;labelBackgroundColor=none;strokeWidth=1;" parent="1" vertex="1">
          <mxGeometry x="1425" y="1958" width="229" height="202" as="geometry" />
        </mxCell>
        <mxCell id="node11" value="&lt;p style=&quot;margin:0px;margin-top:4px;text-align:center;&quot;&gt;&lt;b&gt;Expenses&lt;/b&gt;&lt;/p&gt;&lt;hr size=&quot;1&quot;/&gt;&lt;p style=&quot;margin:0 0 0 4px;line-height:1.6;&quot;&gt; ExpenseNumber: nvarchar(20)&lt;br/&gt; ExpenseDate: datetime&lt;br/&gt; SupplierID: int&lt;br/&gt; CategoryID: int&lt;br/&gt; PaymentMethod: nvarchar(50)&lt;br/&gt; ReferenceNumber: nvarchar(50)&lt;br/&gt; Amount: decimal(18,2)&lt;br/&gt; TaxAmount: decimal(18,2)&lt;br/&gt; Notes: nvarchar(max)&lt;br/&gt; IsTaxDeductible: bit&lt;br/&gt; CreatedBy: int&lt;br/&gt; CreatedDate: datetime&lt;/p&gt;&lt;hr size=&quot;1&quot;/&gt;&lt;p style=&quot;margin:0 0 0 4px;line-height:1.6;&quot;&gt; ExpenseID: int&lt;/p&gt;" style="verticalAlign=top;align=left;overflow=fill;fontSize=14;fontFamily=Helvetica;html=1;rounded=0;shadow=0;comic=0;labelBackgroundColor=none;strokeWidth=1;" parent="1" vertex="1">
          <mxGeometry x="1104" y="1958" width="242" height="398" as="geometry" />
        </mxCell>
        <mxCell id="node6" value="&lt;p style=&quot;margin:0px;margin-top:4px;text-align:center;&quot;&gt;&lt;b&gt;Invoices&lt;/b&gt;&lt;/p&gt;&lt;hr size=&quot;1&quot;/&gt;&lt;p style=&quot;margin:0 0 0 4px;line-height:1.6;&quot;&gt; InvoiceNumber: nvarchar(20)&lt;br/&gt; CustomerID: int&lt;br/&gt; InvoiceDate: datetime&lt;br/&gt; DueDate: datetime&lt;br/&gt; Amount: decimal(18,2)&lt;br/&gt; PaidAmount: decimal(18,2)&lt;br/&gt; Balance: decimal(19,2)&lt;br/&gt; Status: nvarchar(20)&lt;br/&gt; Notes: nvarchar(max)&lt;br/&gt; CreatedBy: int&lt;br/&gt; CreatedDate: datetime&lt;/p&gt;&lt;hr size=&quot;1&quot;/&gt;&lt;p style=&quot;margin:0 0 0 4px;line-height:1.6;&quot;&gt; InvoiceID: int&lt;/p&gt;" style="verticalAlign=top;align=left;overflow=fill;fontSize=14;fontFamily=Helvetica;html=1;rounded=0;shadow=0;comic=0;labelBackgroundColor=none;strokeWidth=1;" parent="1" vertex="1">
          <mxGeometry x="1798" y="799" width="221" height="370" as="geometry" />
        </mxCell>
        <mxCell id="node7" value="&lt;p style=&quot;margin:0px;margin-top:4px;text-align:center;&quot;&gt;&lt;b&gt;Payments&lt;/b&gt;&lt;/p&gt;&lt;hr size=&quot;1&quot;/&gt;&lt;p style=&quot;margin:0 0 0 4px;line-height:1.6;&quot;&gt; PaymentNumber: nvarchar(20)&lt;br/&gt; PaymentDate: datetime&lt;br/&gt; CustomerID: int&lt;br/&gt; InvoiceID: int&lt;br/&gt; PaymentMethod: nvarchar(50)&lt;br/&gt; ReferenceNumber: nvarchar(50)&lt;br/&gt; Amount: decimal(18,2)&lt;br/&gt; Notes: nvarchar(max)&lt;br/&gt; CreatedBy: int&lt;br/&gt; CreatedDate: datetime&lt;/p&gt;&lt;hr size=&quot;1&quot;/&gt;&lt;p style=&quot;margin:0 0 0 4px;line-height:1.6;&quot;&gt; PaymentID: int&lt;/p&gt;" style="verticalAlign=top;align=left;overflow=fill;fontSize=14;fontFamily=Helvetica;html=1;rounded=0;shadow=0;comic=0;labelBackgroundColor=none;strokeWidth=1;" parent="1" vertex="1">
          <mxGeometry x="2189" y="1021" width="242" height="342" as="geometry" />
        </mxCell>
        <mxCell id="node0" value="&lt;p style=&quot;margin:0px;margin-top:4px;text-align:center;&quot;&gt;&lt;b&gt;Product&lt;/b&gt;&lt;/p&gt;&lt;hr size=&quot;1&quot;/&gt;&lt;p style=&quot;margin:0 0 0 4px;line-height:1.6;&quot;&gt; SKU: nvarchar(50)&lt;br/&gt; Barcode: nvarchar(50)&lt;br/&gt; ProductName: nvarchar(200)&lt;br/&gt; Description: nvarchar(max)&lt;br/&gt; CategoryID: int&lt;br/&gt; CategoryName: nvarchar(50)&lt;br/&gt; BrandID: int&lt;br/&gt; BrandName: nvarchar(50)&lt;br/&gt; SupplierID: int&lt;br/&gt; SupplierName: nvarchar(50)&lt;br/&gt; CostPrice: decimal(18,2)&lt;br/&gt; SellingPrice: decimal(18,2)&lt;br/&gt; WholesalePrice: decimal(18,2)&lt;br/&gt; ReorderLevel: int&lt;br/&gt; TargetStockLevel: decimal(18,2)&lt;br/&gt; UnitOfMeasure: nvarchar(50)&lt;br/&gt; ManageStock: bit&lt;br/&gt; AllowFractionalQuantity: bit&lt;br/&gt; ProductImage: varbinary(max)&lt;br/&gt; StockQuantity: int&lt;br/&gt; IsActive: bit&lt;br/&gt; CreatedDate: datetime&lt;br/&gt; CreatedBy: int&lt;br/&gt; ModifiedDate: datetime&lt;br/&gt; ModifiedBy: int&lt;/p&gt;&lt;hr size=&quot;1&quot;/&gt;&lt;p style=&quot;margin:0 0 0 4px;line-height:1.6;&quot;&gt; ProductID: int&lt;/p&gt;" style="verticalAlign=top;align=left;overflow=fill;fontSize=14;fontFamily=Helvetica;html=1;rounded=0;shadow=0;comic=0;labelBackgroundColor=none;strokeWidth=1;" parent="1" vertex="1">
          <mxGeometry x="743" y="1739" width="242" height="762" as="geometry" />
        </mxCell>
        <mxCell id="node9" value="&lt;p style=&quot;margin:0px;margin-top:4px;text-align:center;&quot;&gt;&lt;b&gt;Roles&lt;/b&gt;&lt;/p&gt;&lt;hr size=&quot;1&quot;/&gt;&lt;p style=&quot;margin:0 0 0 4px;line-height:1.6;&quot;&gt; RoleName: nvarchar(50)&lt;br/&gt; Description: nvarchar(255)&lt;br/&gt; CreatedDate: datetime&lt;br/&gt; ModifiedDate: datetime&lt;/p&gt;&lt;hr size=&quot;1&quot;/&gt;&lt;p style=&quot;margin:0 0 0 4px;line-height:1.6;&quot;&gt; RoleID: int&lt;/p&gt;" style="verticalAlign=top;align=left;overflow=fill;fontSize=14;fontFamily=Helvetica;html=1;rounded=0;shadow=0;comic=0;labelBackgroundColor=none;strokeWidth=1;" parent="1" vertex="1">
          <mxGeometry x="763" y="103" width="204" height="174" as="geometry" />
        </mxCell>
        <mxCell id="node4" value="&lt;p style=&quot;margin:0px;margin-top:4px;text-align:center;&quot;&gt;&lt;b&gt;Sale&lt;/b&gt;&lt;/p&gt;&lt;hr size=&quot;1&quot;/&gt;&lt;p style=&quot;margin:0 0 0 4px;line-height:1.6;&quot;&gt; SaleNumber: nvarchar(20)&lt;br/&gt; CustomerID: int&lt;br/&gt; SaleDate: datetime&lt;br/&gt; SubTotal: decimal(18,2)&lt;br/&gt; TaxAmount: decimal(18,2)&lt;br/&gt; DiscountAmount: decimal(18,2)&lt;br/&gt; TotalAmount: decimal(18,2)&lt;br/&gt; PaymentMethod: nvarchar(50)&lt;br/&gt; TenderedAmount: decimal(18,2)&lt;br/&gt; ChangeAmount: decimal(18,2)&lt;br/&gt; Notes: ntext&lt;br/&gt; PrintReceipt: bit&lt;br/&gt; EmailReceipt: bit&lt;br/&gt; IsCompleted: bit&lt;br/&gt; CreatedDate: datetime&lt;br/&gt; CreatedBy: int&lt;/p&gt;&lt;hr size=&quot;1&quot;/&gt;&lt;p style=&quot;margin:0 0 0 4px;line-height:1.6;&quot;&gt; SaleID: int&lt;/p&gt;" style="verticalAlign=top;align=left;overflow=fill;fontSize=14;fontFamily=Helvetica;html=1;rounded=0;shadow=0;comic=0;labelBackgroundColor=none;strokeWidth=1;" parent="1" vertex="1">
          <mxGeometry x="1585" y="1253" width="239" height="510" as="geometry" />
        </mxCell>
        <mxCell id="node17" value="&lt;p style=&quot;margin:0px;margin-top:4px;text-align:center;&quot;&gt;&lt;b&gt;SaleItem&lt;/b&gt;&lt;/p&gt;&lt;hr size=&quot;1&quot;/&gt;&lt;p style=&quot;margin:0 0 0 4px;line-height:1.6;&quot;&gt; SaleID: int&lt;br/&gt; ProductID: int&lt;br/&gt; Quantity: int&lt;br/&gt; UnitPrice: decimal(18,2)&lt;br/&gt; Discount: decimal(18,2)&lt;br/&gt; TotalPrice: decimal(18,2)&lt;/p&gt;&lt;hr size=&quot;1&quot;/&gt;&lt;p style=&quot;margin:0 0 0 4px;line-height:1.6;&quot;&gt; SaleItemID: int&lt;/p&gt;" style="verticalAlign=top;align=left;overflow=fill;fontSize=14;fontFamily=Helvetica;html=1;rounded=0;shadow=0;comic=0;labelBackgroundColor=none;strokeWidth=1;" parent="1" vertex="1">
          <mxGeometry x="1155" y="2472" width="191" height="230" as="geometry" />
        </mxCell>
        <mxCell id="node8" value="&lt;p style=&quot;margin:0px;margin-top:4px;text-align:center;&quot;&gt;&lt;b&gt;Supplier&lt;/b&gt;&lt;/p&gt;&lt;hr size=&quot;1&quot;/&gt;&lt;p style=&quot;margin:0 0 0 4px;line-height:1.6;&quot;&gt; CompanyName: nvarchar(200)&lt;br/&gt; SupplierName: nvarchar(100)&lt;br/&gt; ContactName: nvarchar(100)&lt;br/&gt; ContactTitle: nvarchar(100)&lt;br/&gt; Address: nvarchar(255)&lt;br/&gt; City: nvarchar(100)&lt;br/&gt; State: nvarchar(100)&lt;br/&gt; PostalCode: nvarchar(20)&lt;br/&gt; Country: nvarchar(100)&lt;br/&gt; Phone: nvarchar(30)&lt;br/&gt; Email: nvarchar(255)&lt;br/&gt; Website: nvarchar(255)&lt;br/&gt; PaymentTerms: nvarchar(255)&lt;br/&gt; IsActive: bit&lt;br/&gt; Notes: nvarchar(max)&lt;br/&gt; CreatedDate: datetime&lt;br/&gt; ModifiedDate: datetime&lt;/p&gt;&lt;hr size=&quot;1&quot;/&gt;&lt;p style=&quot;margin:0 0 0 4px;line-height:1.6;&quot;&gt; SupplierID: int&lt;/p&gt;" style="verticalAlign=top;align=left;overflow=fill;fontSize=14;fontFamily=Helvetica;html=1;rounded=0;shadow=0;comic=0;labelBackgroundColor=none;strokeWidth=1;" parent="1" vertex="1">
          <mxGeometry x="1060" y="762" width="232" height="538" as="geometry" />
        </mxCell>
        <mxCell id="node13" value="&lt;p style=&quot;margin:0px;margin-top:4px;text-align:center;&quot;&gt;&lt;b&gt;UserActivityLog&lt;/b&gt;&lt;/p&gt;&lt;hr size=&quot;1&quot;/&gt;&lt;p style=&quot;margin:0 0 0 4px;line-height:1.6;&quot;&gt; UserID: int&lt;br/&gt; ActivityType: nvarchar(50)&lt;br/&gt; Description: nvarchar(max)&lt;br/&gt; IPAddress: nvarchar(50)&lt;br/&gt; Timestamp: datetime&lt;/p&gt;&lt;hr size=&quot;1&quot;/&gt;&lt;p style=&quot;margin:0 0 0 4px;line-height:1.6;&quot;&gt; LogID: int&lt;/p&gt;" style="verticalAlign=top;align=left;overflow=fill;fontSize=14;fontFamily=Helvetica;html=1;rounded=0;shadow=0;comic=0;labelBackgroundColor=none;strokeWidth=1;" parent="1" vertex="1">
          <mxGeometry x="-19" y="835" width="206" height="202" as="geometry" />
        </mxCell>
        <mxCell id="node18" value="&lt;p style=&quot;margin:0px;margin-top:4px;text-align:center;&quot;&gt;&lt;b&gt;UserScheduleRestrictions&lt;/b&gt;&lt;/p&gt;&lt;hr size=&quot;1&quot;/&gt;&lt;p style=&quot;margin:0 0 0 4px;line-height:1.6;&quot;&gt; UserID: int&lt;br/&gt; DayOfWeek: int&lt;br/&gt; StartTime: time&lt;br/&gt; EndTime: time&lt;/p&gt;&lt;hr size=&quot;1&quot;/&gt;&lt;p style=&quot;margin:0 0 0 4px;line-height:1.6;&quot;&gt; RestrictionID: int&lt;/p&gt;" style="verticalAlign=top;align=left;overflow=fill;fontSize=14;fontFamily=Helvetica;html=1;rounded=0;shadow=0;comic=0;labelBackgroundColor=none;strokeWidth=1;" parent="1" vertex="1">
          <mxGeometry x="246" y="793" width="277" height="174" as="geometry" />
        </mxCell>
        <mxCell id="node1" value="&lt;p style=&quot;margin:0px;margin-top:4px;text-align:center;&quot;&gt;&lt;b&gt;Users&lt;/b&gt;&lt;/p&gt;&lt;hr size=&quot;1&quot;/&gt;&lt;p style=&quot;margin:0 0 0 4px;line-height:1.6;&quot;&gt; Username: nvarchar(50)&lt;br/&gt; PasswordHash: nvarchar(256)&lt;br/&gt; Salt: nvarchar(128)&lt;br/&gt; DisplayName: nvarchar(100)&lt;br/&gt; Email: nvarchar(100)&lt;br/&gt; Phone: nvarchar(20)&lt;br/&gt; RoleID: int&lt;br/&gt; Status: nvarchar(20)&lt;br/&gt; TwoFactorEnabled: bit&lt;br/&gt; AccountExpiry: datetime&lt;br/&gt; LastLogin: datetime&lt;br/&gt; CreatedDate: datetime&lt;br/&gt; ModifiedDate: datetime&lt;/p&gt;&lt;hr size=&quot;1&quot;/&gt;&lt;p style=&quot;margin:0 0 0 4px;line-height:1.6;&quot;&gt; UserID: int&lt;/p&gt;" style="verticalAlign=top;align=left;overflow=fill;fontSize=14;fontFamily=Helvetica;html=1;rounded=0;shadow=0;comic=0;labelBackgroundColor=none;strokeWidth=1;" parent="1" vertex="1">
          <mxGeometry x="431" y="47" width="227" height="426" as="geometry" />
        </mxCell>
        <mxCell id="edge19" value="" style="html=1;rounded=1;edgeStyle=orthogonalEdgeStyle;dashed=0;startArrow=none;endArrow=block;endSize=12;strokeColor=#595959;exitX=0.726;exitY=1.000;exitDx=0;exitDy=0;entryX=0.000;entryY=0.962;entryDx=0;entryDy=0;" parent="1" source="node19" target="node1" edge="1">
          <mxGeometry width="50" height="50" relative="1" as="geometry">
            <Array as="points">
              <mxPoint x="222" y="740" />
              <mxPoint x="384" y="740" />
              <mxPoint x="384" y="457" />
            </Array>
          </mxGeometry>
        </mxCell>
        <mxCell id="label116" value="UserID" style="edgeLabel;resizable=0;html=1;align=left;verticalAlign=top;strokeColor=default;" parent="edge19" vertex="1" connectable="0">
          <mxGeometry x="179" y="654" as="geometry" />
        </mxCell>
        <mxCell id="edge2" value="" style="html=1;rounded=1;edgeStyle=orthogonalEdgeStyle;dashed=0;startArrow=none;endArrow=block;endSize=12;strokeColor=#595959;exitX=0.750;exitY=0.000;exitDx=0;exitDy=0;entryX=0.833;entryY=1.000;entryDx=0;entryDy=0;" parent="1" source="node15" target="node1" edge="1">
          <mxGeometry width="50" height="50" relative="1" as="geometry">
            <Array as="points">
              <mxPoint x="716" y="640" />
              <mxPoint x="620" y="640" />
            </Array>
          </mxGeometry>
        </mxCell>
        <mxCell id="label14" value="CreatedBy:UserID" style="edgeLabel;resizable=0;html=1;align=left;verticalAlign=top;strokeColor=default;" parent="edge2" vertex="1" connectable="0">
          <mxGeometry x="664" y="1184" as="geometry" />
        </mxCell>
        <mxCell id="edge15" value="" style="html=1;rounded=1;edgeStyle=orthogonalEdgeStyle;dashed=0;startArrow=none;endArrow=block;endSize=12;strokeColor=#595959;exitX=0.250;exitY=0.000;exitDx=0;exitDy=0;entryX=0.500;entryY=1.000;entryDx=0;entryDy=0;" parent="1" source="node15" target="node1" edge="1">
          <mxGeometry width="50" height="50" relative="1" as="geometry">
            <Array as="points">
              <mxPoint x="612" y="640" />
              <mxPoint x="544" y="640" />
            </Array>
          </mxGeometry>
        </mxCell>
        <mxCell id="label92" value="ModifiedBy:UserID" style="edgeLabel;resizable=0;html=1;align=left;verticalAlign=top;strokeColor=default;" parent="edge15" vertex="1" connectable="0">
          <mxGeometry x="560" y="963" as="geometry" />
        </mxCell>
        <mxCell id="edge4" value="" style="html=1;rounded=1;edgeStyle=orthogonalEdgeStyle;dashed=0;startArrow=none;endArrow=block;endSize=12;strokeColor=#595959;exitX=0.750;exitY=0.000;exitDx=0;exitDy=0;entryX=0.833;entryY=1.000;entryDx=0;entryDy=0;" parent="1" source="node3" target="node1" edge="1">
          <mxGeometry width="50" height="50" relative="1" as="geometry">
            <Array as="points">
              <mxPoint x="921" y="640" />
              <mxPoint x="620" y="640" />
            </Array>
          </mxGeometry>
        </mxCell>
        <mxCell id="label26" value="CreatedBy:UserID" style="edgeLabel;resizable=0;html=1;align=left;verticalAlign=top;strokeColor=default;" parent="edge4" vertex="1" connectable="0">
          <mxGeometry x="870" y="792" as="geometry" />
        </mxCell>
        <mxCell id="edge20" value="" style="html=1;rounded=1;edgeStyle=orthogonalEdgeStyle;dashed=0;startArrow=none;endArrow=block;endSize=12;strokeColor=#595959;exitX=0.250;exitY=0.000;exitDx=0;exitDy=0;entryX=0.500;entryY=1.000;entryDx=0;entryDy=0;" parent="1" source="node3" target="node1" edge="1">
          <mxGeometry width="50" height="50" relative="1" as="geometry">
            <Array as="points">
              <mxPoint x="807" y="640" />
              <mxPoint x="544" y="640" />
            </Array>
          </mxGeometry>
        </mxCell>
        <mxCell id="label122" value="ModifiedBy:UserID" style="edgeLabel;resizable=0;html=1;align=left;verticalAlign=top;strokeColor=default;" parent="edge20" vertex="1" connectable="0">
          <mxGeometry x="744" y="711" as="geometry" />
        </mxCell>
        <mxCell id="edge11" value="" style="html=1;rounded=1;edgeStyle=orthogonalEdgeStyle;dashed=0;startArrow=none;endArrow=block;endSize=12;strokeColor=#595959;exitX=0.000;exitY=0.585;exitDx=0;exitDy=0;entryX=1.000;entryY=0.922;entryDx=0;entryDy=0;" parent="1" source="node14" target="node2" edge="1">
          <mxGeometry width="50" height="50" relative="1" as="geometry">
            <Array as="points" />
          </mxGeometry>
        </mxCell>
        <mxCell id="label68" value="CustomerTypeID" style="edgeLabel;resizable=0;html=1;align=left;verticalAlign=top;strokeColor=default;" parent="edge11" vertex="1" connectable="0">
          <mxGeometry x="1695" y="265" as="geometry" />
        </mxCell>
        <mxCell id="edge0" value="" style="html=1;rounded=1;edgeStyle=orthogonalEdgeStyle;dashed=0;startArrow=none;endArrow=block;endSize=12;strokeColor=#595959;exitX=0.500;exitY=0.000;exitDx=0;exitDy=0;entryX=0.000;entryY=0.962;entryDx=0;entryDy=0;" parent="1" source="node5" target="node1" edge="1">
          <mxGeometry width="50" height="50" relative="1" as="geometry">
            <Array as="points">
              <mxPoint x="224" y="740" />
              <mxPoint x="384" y="740" />
              <mxPoint x="384" y="457" />
            </Array>
          </mxGeometry>
        </mxCell>
        <mxCell id="label2" value="UserID" style="edgeLabel;resizable=0;html=1;align=left;verticalAlign=top;strokeColor=default;" parent="edge0" vertex="1" connectable="0">
          <mxGeometry x="224" y="1015" as="geometry" />
        </mxCell>
        <mxCell id="edge9" value="" style="html=1;rounded=1;edgeStyle=orthogonalEdgeStyle;dashed=0;startArrow=none;endArrow=block;endSize=12;strokeColor=#595959;exitX=1.000;exitY=0.881;exitDx=0;exitDy=0;entryX=0.500;entryY=1.000;entryDx=0;entryDy=0;" parent="1" source="node11" target="node12" edge="1">
          <mxGeometry width="50" height="50" relative="1" as="geometry">
            <Array as="points">
              <mxPoint x="1539" y="2308" />
            </Array>
          </mxGeometry>
        </mxCell>
        <mxCell id="label56" value="CategoryID" style="edgeLabel;resizable=0;html=1;align=left;verticalAlign=top;strokeColor=default;" parent="edge9" vertex="1" connectable="0">
          <mxGeometry x="1474" y="2284" as="geometry" />
        </mxCell>
        <mxCell id="edge13" value="" style="html=1;rounded=1;edgeStyle=orthogonalEdgeStyle;dashed=0;startArrow=none;endArrow=block;endSize=12;strokeColor=#595959;exitX=0.299;exitY=0.000;exitDx=0;exitDy=0;entryX=0.500;entryY=1.000;entryDx=0;entryDy=0;" parent="1" source="node11" target="node8" edge="1">
          <mxGeometry width="50" height="50" relative="1" as="geometry">
            <Array as="points" />
          </mxGeometry>
        </mxCell>
        <mxCell id="label80" value="SupplierID" style="edgeLabel;resizable=0;html=1;align=left;verticalAlign=top;strokeColor=default;" parent="edge13" vertex="1" connectable="0">
          <mxGeometry x="1114" y="1877" as="geometry" />
        </mxCell>
        <mxCell id="edge7" value="" style="html=1;rounded=1;edgeStyle=orthogonalEdgeStyle;dashed=0;startArrow=none;endArrow=block;endSize=12;strokeColor=#595959;exitX=0.500;exitY=0.000;exitDx=0;exitDy=0;entryX=0.833;entryY=1.000;entryDx=0;entryDy=0;" parent="1" source="node11" target="node1" edge="1">
          <mxGeometry width="50" height="50" relative="1" as="geometry">
            <Array as="points">
              <mxPoint x="1225" y="1731" />
              <mxPoint x="1328" y="1731" />
              <mxPoint x="1328" y="640" />
              <mxPoint x="620" y="640" />
            </Array>
          </mxGeometry>
        </mxCell>
        <mxCell id="label44" value="CreatedBy:UserID" style="edgeLabel;resizable=0;html=1;align=left;verticalAlign=top;strokeColor=default;" parent="edge7" vertex="1" connectable="0">
          <mxGeometry x="1225" y="1773" as="geometry" />
        </mxCell>
        <mxCell id="edge16" value="" style="html=1;rounded=1;edgeStyle=orthogonalEdgeStyle;dashed=0;startArrow=none;endArrow=block;endSize=12;strokeColor=#595959;exitX=0.895;exitY=0.000;exitDx=0;exitDy=0;entryX=0.628;entryY=0.998;entryDx=0;entryDy=0;entryPerimeter=0;" parent="1" source="node6" target="node14" edge="1">
          <mxGeometry width="50" height="50" relative="1" as="geometry">
            <Array as="points">
              <mxPoint x="1996" y="510" />
              <mxPoint x="1997" y="510" />
            </Array>
          </mxGeometry>
        </mxCell>
        <mxCell id="label98" value="CustomerID" style="edgeLabel;resizable=0;html=1;align=left;verticalAlign=top;strokeColor=default;" parent="edge16" vertex="1" connectable="0">
          <mxGeometry x="1961" y="706" as="geometry" />
        </mxCell>
        <mxCell id="edge6" value="" style="html=1;rounded=1;edgeStyle=orthogonalEdgeStyle;dashed=0;startArrow=none;endArrow=block;endSize=12;strokeColor=#595959;exitX=0.250;exitY=0.000;exitDx=0;exitDy=0;entryX=0.833;entryY=1.000;entryDx=0;entryDy=0;" parent="1" source="node6" target="node1" edge="1">
          <mxGeometry width="50" height="50" relative="1" as="geometry">
            <Array as="points">
              <mxPoint x="1854" y="640" />
              <mxPoint x="620" y="640" />
            </Array>
          </mxGeometry>
        </mxCell>
        <mxCell id="label38" value="CreatedBy:UserID" style="edgeLabel;resizable=0;html=1;align=left;verticalAlign=top;strokeColor=default;" parent="edge6" vertex="1" connectable="0">
          <mxGeometry x="1812" y="746" as="geometry" />
        </mxCell>
        <mxCell id="edge26" value="" style="html=1;rounded=1;edgeStyle=orthogonalEdgeStyle;dashed=0;startArrow=none;endArrow=block;endSize=12;strokeColor=#595959;exitX=0.514;exitY=0.000;exitDx=0;exitDy=0;entryX=1.000;entryY=0.976;entryDx=0;entryDy=0;" parent="1" source="node7" target="node14" edge="1">
          <mxGeometry width="50" height="50" relative="1" as="geometry">
            <Array as="points">
              <mxPoint x="2314" y="481" />
            </Array>
          </mxGeometry>
        </mxCell>
        <mxCell id="label158" value="CustomerID" style="edgeLabel;resizable=0;html=1;align=left;verticalAlign=top;strokeColor=default;" parent="edge26" vertex="1" connectable="0">
          <mxGeometry x="2188" y="491" as="geometry" />
        </mxCell>
        <mxCell id="edge23" value="" style="html=1;rounded=1;edgeStyle=orthogonalEdgeStyle;dashed=0;startArrow=none;endArrow=block;endSize=12;strokeColor=#595959;exitX=0.000;exitY=0.384;exitDx=0;exitDy=0;entryX=1.000;entryY=0.956;entryDx=0;entryDy=0;" parent="1" source="node7" target="node6" edge="1">
          <mxGeometry width="50" height="50" relative="1" as="geometry">
            <Array as="points" />
          </mxGeometry>
        </mxCell>
        <mxCell id="label140" value="InvoiceID" style="edgeLabel;resizable=0;html=1;align=left;verticalAlign=top;strokeColor=default;" parent="edge23" vertex="1" connectable="0">
          <mxGeometry x="2077" y="1162" as="geometry" />
        </mxCell>
        <mxCell id="edge12" value="" style="html=1;rounded=1;edgeStyle=orthogonalEdgeStyle;dashed=0;startArrow=none;endArrow=block;endSize=12;strokeColor=#595959;exitX=0.151;exitY=1.000;exitDx=0;exitDy=0;entryX=0.833;entryY=1.000;entryDx=0;entryDy=0;" parent="1" source="node7" target="node1" edge="1">
          <mxGeometry width="50" height="50" relative="1" as="geometry">
            <Array as="points">
              <mxPoint x="2226" y="1840" />
              <mxPoint x="1463" y="1840" />
              <mxPoint x="1463" y="640" />
              <mxPoint x="620" y="640" />
            </Array>
          </mxGeometry>
        </mxCell>
        <mxCell id="label74" value="CreatedBy:UserID" style="edgeLabel;resizable=0;html=1;align=left;verticalAlign=top;strokeColor=default;" parent="edge12" vertex="1" connectable="0">
          <mxGeometry x="2123" y="1779" as="geometry" />
        </mxCell>
        <mxCell id="edge14" value="" style="html=1;rounded=1;edgeStyle=orthogonalEdgeStyle;dashed=0;startArrow=none;endArrow=block;endSize=12;strokeColor=#595959;exitX=0.300;exitY=0.000;exitDx=0;exitDy=0;entryX=0.500;entryY=1.000;entryDx=0;entryDy=0;" parent="1" source="node0" target="node15" edge="1">
          <mxGeometry width="50" height="50" relative="1" as="geometry">
            <Array as="points">
              <mxPoint x="816" y="1680" />
              <mxPoint x="664" y="1680" />
            </Array>
          </mxGeometry>
        </mxCell>
        <mxCell id="label86" value="BrandID" style="edgeLabel;resizable=0;html=1;align=left;verticalAlign=top;strokeColor=default;" parent="edge14" vertex="1" connectable="0">
          <mxGeometry x="715" y="1660" as="geometry" />
        </mxCell>
        <mxCell id="edge25" value="" style="html=1;rounded=1;edgeStyle=orthogonalEdgeStyle;dashed=0;startArrow=none;endArrow=block;endSize=12;strokeColor=#595959;exitX=0.500;exitY=0.000;exitDx=0;exitDy=0;entryX=0.500;entryY=1.000;entryDx=0;entryDy=0;" parent="1" source="node0" target="node3" edge="1">
          <mxGeometry width="50" height="50" relative="1" as="geometry">
            <Array as="points" />
          </mxGeometry>
        </mxCell>
        <mxCell id="label152" value="CategoryID" style="edgeLabel;resizable=0;html=1;align=left;verticalAlign=top;strokeColor=default;" parent="edge25" vertex="1" connectable="0">
          <mxGeometry x="799" y="1397" as="geometry" />
        </mxCell>
        <mxCell id="edge3" value="" style="html=1;rounded=1;edgeStyle=orthogonalEdgeStyle;dashed=0;startArrow=none;endArrow=block;endSize=12;strokeColor=#595959;exitX=0.900;exitY=0.000;exitDx=0;exitDy=0;entryX=0.500;entryY=1.000;entryDx=0;entryDy=0;" parent="1" source="node0" target="node8" edge="1">
          <mxGeometry width="50" height="50" relative="1" as="geometry">
            <Array as="points">
              <mxPoint x="961" y="1700" />
              <mxPoint x="1176" y="1700" />
            </Array>
          </mxGeometry>
        </mxCell>
        <mxCell id="label20" value="SupplierID" style="edgeLabel;resizable=0;html=1;align=left;verticalAlign=top;strokeColor=default;" parent="edge3" vertex="1" connectable="0">
          <mxGeometry x="1037" y="1680" as="geometry" />
        </mxCell>
        <mxCell id="edge10" value="" style="html=1;rounded=1;edgeStyle=orthogonalEdgeStyle;dashed=0;startArrow=none;endArrow=block;endSize=12;strokeColor=#595959;exitX=0.700;exitY=0.000;exitDx=0;exitDy=0;entryX=0.833;entryY=1.000;entryDx=0;entryDy=0;" parent="1" source="node0" target="node1" edge="1">
          <mxGeometry width="50" height="50" relative="1" as="geometry">
            <Array as="points">
              <mxPoint x="912" y="1680" />
              <mxPoint x="1004" y="1680" />
              <mxPoint x="1004" y="640" />
              <mxPoint x="620" y="640" />
            </Array>
          </mxGeometry>
        </mxCell>
        <mxCell id="label62" value="CreatedBy:UserID" style="edgeLabel;resizable=0;html=1;align=left;verticalAlign=top;strokeColor=default;" parent="edge10" vertex="1" connectable="0">
          <mxGeometry x="953" y="1397" as="geometry" />
        </mxCell>
        <mxCell id="edge24" value="" style="html=1;rounded=1;edgeStyle=orthogonalEdgeStyle;dashed=0;startArrow=none;endArrow=block;endSize=12;strokeColor=#595959;exitX=0.100;exitY=0.000;exitDx=0;exitDy=0;entryX=0.500;entryY=1.000;entryDx=0;entryDy=0;" parent="1" source="node0" target="node1" edge="1">
          <mxGeometry width="50" height="50" relative="1" as="geometry">
            <Array as="points">
              <mxPoint x="767" y="1700" />
              <mxPoint x="544" y="1700" />
            </Array>
          </mxGeometry>
        </mxCell>
        <mxCell id="label146" value="ModifiedBy:UserID" style="edgeLabel;resizable=0;html=1;align=left;verticalAlign=top;strokeColor=default;" parent="edge24" vertex="1" connectable="0">
          <mxGeometry x="662" y="1710" as="geometry" />
        </mxCell>
        <mxCell id="edge17" value="" style="html=1;rounded=1;edgeStyle=orthogonalEdgeStyle;dashed=0;startArrow=none;endArrow=block;endSize=12;strokeColor=#595959;exitX=0.750;exitY=0.000;exitDx=0;exitDy=0;entryX=0.339;entryY=1.008;entryDx=0;entryDy=0;" parent="1" source="node4" target="node14" edge="1">
          <mxGeometry width="50" height="50" relative="1" as="geometry">
            <Array as="points">
              <mxPoint x="1764" y="640" />
              <mxPoint x="1922" y="640" />
              <mxPoint x="1922" y="510" />
              <mxPoint x="1923" y="510" />
            </Array>
          </mxGeometry>
        </mxCell>
        <mxCell id="label104" value="CustomerID" style="edgeLabel;resizable=0;html=1;align=left;verticalAlign=top;strokeColor=default;" parent="edge17" vertex="1" connectable="0">
          <mxGeometry x="1867" y="540" as="geometry" />
        </mxCell>
        <mxCell id="edge5" value="" style="html=1;rounded=1;edgeStyle=orthogonalEdgeStyle;dashed=0;startArrow=none;endArrow=block;endSize=12;strokeColor=#595959;exitX=0.250;exitY=0.000;exitDx=0;exitDy=0;entryX=0.833;entryY=1.000;entryDx=0;entryDy=0;" parent="1" source="node4" target="node1" edge="1">
          <mxGeometry width="50" height="50" relative="1" as="geometry">
            <Array as="points">
              <mxPoint x="1644" y="640" />
              <mxPoint x="620" y="640" />
            </Array>
          </mxGeometry>
        </mxCell>
        <mxCell id="label32" value="CreatedBy:UserID" style="edgeLabel;resizable=0;html=1;align=left;verticalAlign=top;strokeColor=default;" parent="edge5" vertex="1" connectable="0">
          <mxGeometry x="1569" y="778" as="geometry" />
        </mxCell>
        <mxCell id="edge21" value="" style="html=1;rounded=1;edgeStyle=orthogonalEdgeStyle;dashed=0;startArrow=none;endArrow=block;endSize=12;strokeColor=#595959;exitX=0.000;exitY=0.330;exitDx=0;exitDy=0;entryX=0.500;entryY=1.000;entryDx=0;entryDy=0;" parent="1" source="node17" target="node0" edge="1">
          <mxGeometry width="50" height="50" relative="1" as="geometry">
            <Array as="points">
              <mxPoint x="864" y="2548" />
            </Array>
          </mxGeometry>
        </mxCell>
        <mxCell id="label128" value="ProductID" style="edgeLabel;resizable=0;html=1;align=left;verticalAlign=top;strokeColor=default;" parent="edge21" vertex="1" connectable="0">
          <mxGeometry x="963" y="2558" as="geometry" />
        </mxCell>
        <mxCell id="edge1" value="" style="html=1;rounded=1;edgeStyle=orthogonalEdgeStyle;dashed=0;startArrow=none;endArrow=block;endSize=12;strokeColor=#595959;exitX=1.000;exitY=0.199;exitDx=0;exitDy=0;entryX=0.500;entryY=1.000;entryDx=0;entryDy=0;" parent="1" source="node17" target="node4" edge="1">
          <mxGeometry width="50" height="50" relative="1" as="geometry">
            <Array as="points">
              <mxPoint x="1704" y="2518" />
            </Array>
          </mxGeometry>
        </mxCell>
        <mxCell id="label8" value="SaleID" style="edgeLabel;resizable=0;html=1;align=left;verticalAlign=top;strokeColor=default;" parent="edge1" vertex="1" connectable="0">
          <mxGeometry x="1517" y="2498" as="geometry" />
        </mxCell>
        <mxCell id="edge8" value="" style="html=1;rounded=1;edgeStyle=orthogonalEdgeStyle;dashed=0;startArrow=none;endArrow=block;endSize=12;strokeColor=#595959;exitX=0.500;exitY=0.000;exitDx=0;exitDy=0;entryX=0.000;entryY=0.962;entryDx=0;entryDy=0;" parent="1" source="node13" target="node1" edge="1">
          <mxGeometry width="50" height="50" relative="1" as="geometry">
            <Array as="points">
              <mxPoint x="84" y="740" />
              <mxPoint x="384" y="740" />
              <mxPoint x="384" y="457" />
            </Array>
          </mxGeometry>
        </mxCell>
        <mxCell id="label50" value="UserID" style="edgeLabel;resizable=0;html=1;align=left;verticalAlign=top;strokeColor=default;" parent="edge8" vertex="1" connectable="0">
          <mxGeometry x="41" y="770" as="geometry" />
        </mxCell>
        <mxCell id="edge22" value="" style="html=1;rounded=1;edgeStyle=orthogonalEdgeStyle;dashed=0;startArrow=none;endArrow=block;endSize=12;strokeColor=#595959;exitX=0.500;exitY=0.000;exitDx=0;exitDy=0;entryX=0.000;entryY=0.962;entryDx=0;entryDy=0;" parent="1" source="node18" target="node1" edge="1">
          <mxGeometry width="50" height="50" relative="1" as="geometry">
            <Array as="points">
              <mxPoint x="384" y="457" />
            </Array>
          </mxGeometry>
        </mxCell>
        <mxCell id="label134" value="UserID" style="edgeLabel;resizable=0;html=1;align=left;verticalAlign=top;strokeColor=default;" parent="edge22" vertex="1" connectable="0">
          <mxGeometry x="384" y="768" as="geometry" />
        </mxCell>
        <mxCell id="edge18" value="" style="html=1;rounded=1;edgeStyle=orthogonalEdgeStyle;dashed=0;startArrow=none;endArrow=block;endSize=12;strokeColor=#595959;exitX=1.000;exitY=0.500;exitDx=0;exitDy=0;entryX=0.000;entryY=0.900;entryDx=0;entryDy=0;" parent="1" source="node1" target="node9" edge="1">
          <mxGeometry width="50" height="50" relative="1" as="geometry">
            <Array as="points" />
          </mxGeometry>
        </mxCell>
        <mxCell id="label110" value="RoleID" style="edgeLabel;resizable=0;html=1;align=left;verticalAlign=top;strokeColor=default;" parent="edge18" vertex="1" connectable="0">
          <mxGeometry x="689" y="229" as="geometry" />
        </mxCell>
      </root>
    </mxGraphModel>
  </diagram>
</mxfile>
